<svg t="1708582400710" class="icon" viewBox="0 0 1024 1024" version="1.1" xmlns="http://www.w3.org/2000/svg" p-id="2064" width="200" height="200"><path d="M391.96 1024H113.6c-40.59 0-73.6-32.67-73.6-72.84V72.84C40 32.67 73.02 0 113.6 0h748.8C902.98 0 936 32.67 936 72.84v313.72c0 17.67-14.33 32-32 32s-32-14.33-32-32V72.84c0-4.8-4.4-8.84-9.6-8.84H113.6c-5.2 0-9.6 4.05-9.6 8.84v878.31c0 4.8 4.4 8.84 9.6 8.84h278.36c17.67 0 32 14.33 32 32s-14.33 32.01-32 32.01z" fill="" p-id="2065"></path><path d="M728 240H248c-17.67 0-32-14.33-32-32s14.33-32 32-32h480c17.67 0 32 14.33 32 32s-14.33 32-32 32zM472 512H248c-17.67 0-32-14.33-32-32s14.33-32 32-32h224c17.67 0 32 14.33 32 32s-14.33 32-32 32zM360 784H248c-17.67 0-32-14.33-32-32s14.33-32 32-32h112c17.67 0 32 14.33 32 32s-14.33 32-32 32zM728 720c-127.22 0-256-41.22-256-120s128.78-120 256-120 256 41.22 256 120-128.78 120-256 120z m0-176c-124.72 0-192 39.75-192 56s67.28 56 192 56 192-39.75 192-56-67.28-56-192-56zM728 1024c-127.22 0-256-41.22-256-120 0-17.67 14.33-32 32-32s32 14.33 32 32c0 16.25 67.28 56 192 56s192-39.75 192-56c0-17.67 14.33-32 32-32s32 14.33 32 32c0 78.78-128.78 120-256 120z" fill="" p-id="2066"></path><path d="M728 880c-127.22 0-256-41.22-256-120 0-17.67 14.33-32 32-32s32 14.33 32 32c0 16.25 67.28 56 192 56s192-39.75 192-56c0-17.67 14.33-32 32-32s32 14.33 32 32c0 78.78-128.78 120-256 120z" fill="" p-id="2067"></path><path d="M504 928c-17.67 0-32-14.33-32-32V608c0-17.67 14.33-32 32-32s32 14.33 32 32v288c0 17.67-14.33 32-32 32zM952 928c-17.67 0-32-14.33-32-32V608c0-17.67 14.33-32 32-32s32 14.33 32 32v288c0 17.67-14.33 32-32 32z" fill="" p-id="2068"></path></svg>