<svg t="1708327580463" class="icon" viewBox="0 0 1024 1024" version="1.1" xmlns="http://www.w3.org/2000/svg" p-id="1746" width="200" height="200"><path d="M858.88083437 3.48918518c89.76247467 0 162.48073482 71.92818725 164.03175348 161.23797807l0.02548623 2.7112486v692.76406518c0 6.94802963-0.43083852 13.79411437-1.26702933 20.512768l-0.00606816-410.16433778-70.58469926-0.00121362v-170.00523852h0.10922667l-0.10922667-133.10604326c0-50.85836325-41.45030637-92.20065659-92.19944296-92.2006566H167.32675792c-50.34863882 0-91.37174755 40.62746548-92.18730667 90.6811923l-0.01213628 1.5194643v133.10604326h0.10922666v544.07016297c0 58.86103703 40.62746548 106.82125275 90.67997867 107.773952l1.52067792 0.01456355H468.03019852V1024.1517037H167.43841185c-89.76247467 0-162.48073482-71.92818725-163.92495407-161.23797807L3.48918518 860.20247703V167.43841185c0-89.65446163 71.82017422-162.48073482 161.23312357-163.92738133l2.71488947-0.02184534H858.87962075zM432.95266133 747.44414815l0.06432237 0.06432237c17.0272237 0.76944118 30.43783111 14.92643082 30.43783112 32.12963081 0 17.20198637-13.41060741 31.36018963-30.43783112 32.12841719H210.11448415c-17.59762963 0-31.8626323-14.39850192-31.8626323-32.16118519s14.26500267-32.16118518 31.8626323-32.16118518h222.83817718z m173.38398342-135.92651852C623.94519703 611.51762963 638.21748148 625.91613155 638.21748148 643.67881482S623.94398341 675.84 606.33664475 675.84H211.34753185C193.73776592 675.84 179.46548148 661.44149808 179.46548148 643.67881482s14.27349808-32.16118518 31.88083674-32.16118519H606.33543111zM370.00533333 177.7664v58.10858667h117.57643852v176.70447408h-51.99189333v-15.97136593H370.00533333v103.98378666h-52.33170963v-103.98378666h-65.24472888v17.6704474h-49.61317927v-178.40355555h114.85790815V177.7664H370.00533333z m354.08858075 1.35926518c4.07779555 10.53430518 8.8352237 20.38897778 14.27228444 30.24365037 10.87412148-9.17504 21.40842667-19.36952889 28.88438518-28.20475258l37.0399763 26.16585481c-14.61210075 11.89357037-30.58346667 23.78714075-44.85575111 33.30199704 3.73797925 4.41761185 7.47595852 8.8352237 11.21393778 12.91301926 12.91301925-10.53430518 26.16585482-22.76769185 35.00107851-32.96218075l36.02052741 25.14640592c-13.59265185 11.89357037-28.88438518 23.78714075-42.81685334 33.64181334 15.97136592 12.23338667 34.32144592 22.76769185 54.03079112 30.58346666-11.21393778 9.5148563-26.16585482 29.22420148-33.64181334 42.13722075-10.87412148-5.09724445-21.06861037-10.53430518-30.58346666-16.99081482v85.97352297H735.30785185l32.62236445 6.45650963c-4.75742815 9.17504-9.17504 17.67044741-12.91301927 25.14640592h80.53646222v41.45758815H534.13660445v-41.45758815h77.81793185c-2.71853037-7.81577482-6.45650963-16.99081482-10.87412148-23.78714073l24.80658963-7.81577482H578.99235555v-84.27444148c-9.85467259 6.11669333-20.04916148 12.23338667-30.24365037 17.33063111-6.45650963-10.87412148-20.38897778-27.8649363-30.24365036-36.70016 18.0102637-7.81577482 35.68071111-18.6898963 51.99189333-31.94273186-8.8352237-8.49540741-21.74824297-18.0102637-32.28254815-25.14640592l26.50567111-27.1853037c11.55375408 6.45650963 25.48622222 15.63154963 34.66126222 24.12695703 7.81577482-8.8352237 14.95191703-18.35008 20.72879408-27.8649363h-74.75958519v-39.41869036h98.54672593l8.1555911-2.03889778 32.62236445 15.97136593c-1.69908148-3.73797925-3.05834667-7.81577482-4.75742815-11.55375407z m-5.09724445 241.94920297h-69.32252445c5.43706075 8.8352237 9.85467259 19.02971259 11.89357037 26.8454874l-13.93246814 4.75742815h58.44840296c4.75742815-9.85467259 9.85467259-21.74824297 12.91301926-31.60291555zM735.30785185 360.58756741h-106.36250074v21.74824296H735.30785185v-21.74824296z m-299.71797333-76.11885038H370.00533333v63.54564742h65.58454519v-63.54564742z m-117.91625482 0h-65.24472888v63.54564742h65.24472888v-63.54564742z m310.59209482 11.55375408c-8.8352237 9.17504-18.6898963 18.0102637-28.54456889 25.82603852h170.58778074c-8.8352237-7.13614222-17.67044741-14.95191703-25.48622222-23.44732445v8.83522371H628.26571852zM685.01504 204.9517037c-8.15559111 22.42787555-19.02971259 43.15666963-32.28254815 61.50674963h66.26417778c-12.91301925-18.6898963-24.12695703-39.41869037-33.98162963-61.50674963z" fill="" p-id="1747"></path><path d="M1012.65499022 652.8902637l-111.28740977-111.08837452c-6.63369955-6.62156325-15.47741867-10.74062222-24.7641126-11.47608177-11.49671348-0.88352237-22.69972859 3.08990103-30.6587117 11.18238341L543.33106252 843.43011555c-6.78054875 6.76841245-10.61319111 15.74441718-10.7600403 25.30781867l-2.36293689 116.6783526c-0.1432083 10.0063763 3.68943408 19.56977778 10.76489482 26.7799514 6.92739792 6.91526163 16.36094103 10.74062222 26.08939615 10.74062223h0.589824l117.18322252-2.05952948c9.58160592-0.14806282 18.72023703-3.97342341 25.35272296-10.74062222l302.46684444-301.924352c15.32814222-15.15580682 15.32814222-40.0218643 0-55.32330667zM668.76939378 947.75129125l-64.11969423 1.17722075 1.3264972-63.71070103 267.53251555-267.05191822 62.79319703 62.68032947-267.53251555 266.90506903z" fill="" p-id="1748"></path></svg>