<svg t="1712480316583" class="icon" viewBox="0 0 1024 1024" version="1.1" xmlns="http://www.w3.org/2000/svg" p-id="5607" width="200" height="200"><path d="M875.776 962.56H153.088C98.304 962.56 53.76 918.016 53.76 863.488V240.128C53.76 185.344 98.304 140.8 153.088 140.8h722.688c54.528 0 99.072 44.544 99.072 99.072v623.36c0 54.784-44.544 99.328-99.072 99.328zM153.088 202.24C132.352 202.24 115.2 219.136 115.2 240.128v623.36c0 20.736 16.896 37.632 37.632 37.632H875.52c20.736 0 37.632-16.896 37.632-37.632V240.128c0-20.736-16.896-37.632-37.632-37.632H153.088z" fill="#323233" p-id="5608"></path><path d="M943.36 455.168H92.16c-16.896 0-30.72-13.824-30.72-30.72s13.824-30.72 30.72-30.72h851.2c16.896 0 30.72 13.824 30.72 30.72s-13.824 30.72-30.72 30.72zM306.944 290.048c-16.896 0-30.72-13.568-30.72-30.464l-1.28-179.968c0-16.896 13.568-30.72 30.464-30.976 16.896 0 30.72 13.568 30.976 30.464l1.28 179.968c0 16.896-13.568 30.72-30.72 30.976zM716.8 290.048c-16.896 0-30.72-13.568-30.72-30.464l-1.28-179.968c0-16.896 13.568-30.72 30.464-30.976h0.256c16.896 0 30.72 13.568 30.72 30.464l1.28 179.968c0.256 16.896-13.312 30.72-30.72 30.976 0.256 0 0.256 0 0 0zM340.736 616.96h-104.96c-16.896 0-30.72-13.824-30.72-30.72s13.824-30.72 30.72-30.72h104.96c16.896 0 30.72 13.824 30.72 30.72s-13.824 30.72-30.72 30.72zM340.736 775.68h-104.96c-16.896 0-30.72-13.824-30.72-30.72s13.824-30.72 30.72-30.72h104.96c16.896 0 30.72 13.824 30.72 30.72s-13.824 30.72-30.72 30.72zM558.08 617.216h-104.96c-16.896 0-30.72-13.824-30.72-30.72s13.824-30.72 30.72-30.72h104.96c16.896 0 30.72 13.824 30.72 30.72s-13.824 30.72-30.72 30.72zM558.08 775.68h-104.96c-16.896 0-30.72-13.824-30.72-30.72s13.824-30.72 30.72-30.72h104.96c16.896 0 30.72 13.824 30.72 30.72s-13.824 30.72-30.72 30.72zM786.944 617.216h-104.96c-16.896 0-30.72-13.824-30.72-30.72s13.824-30.72 30.72-30.72h104.96c16.896 0 30.72 13.824 30.72 30.72s-13.824 30.72-30.72 30.72zM786.944 775.68h-104.96c-16.896 0-30.72-13.824-30.72-30.72s13.824-30.72 30.72-30.72h104.96c16.896 0 30.72 13.824 30.72 30.72s-13.824 30.72-30.72 30.72z" fill="#323233" p-id="5609"></path></svg>